<svg width="114" height="66" viewBox="0 0 114 66" fill="none" xmlns="http://www.w3.org/2000/svg">
<path d="M8.055 47.685C7.575 47.595 7.08 47.28 6.57 46.74C6.09 46.17 5.775 45.645 5.625 45.165C5.625 45.105 5.595 45.045 5.535 44.985C5.475 44.895 5.43 44.835 5.4 44.805C5.28 44.715 5.22 44.22 5.22 43.32C5.22 42.6 5.25 41.85 5.31 41.07C5.4 40.29 5.505 39.66 5.625 39.18L6.435 36.795L7.065 34.995L8.28 32.385L6.48 31.89C6.27 31.86 6.09 31.755 5.94 31.575C5.82 31.395 5.76 31.23 5.76 31.08C5.76 30.84 5.88 30.555 6.12 30.225C6.39 29.865 6.6 29.685 6.75 29.685C6.84 29.715 7.08 29.73 7.47 29.73C8.37 29.73 9.045 29.685 9.495 29.595C9.795 29.475 10.005 29.235 10.125 28.875C10.245 28.635 10.38 28.335 10.53 27.975C10.71 27.615 10.875 27.285 11.025 26.985C11.115 26.805 11.25 26.535 11.43 26.175C11.64 25.785 11.895 25.35 12.195 24.87C12.255 24.78 12.39 24.57 12.6 24.24C12.81 23.88 13.065 23.58 13.365 23.34C13.575 23.13 13.83 23.025 14.13 23.025C14.43 23.025 14.82 23.22 15.3 23.61C15.36 23.7 15.435 23.82 15.525 23.97C15.645 24.12 15.705 24.255 15.705 24.375C15.705 24.495 15.585 24.75 15.345 25.14C15.165 25.5 14.985 25.83 14.805 26.13C14.655 26.4 14.52 26.64 14.4 26.85C14.04 27.45 13.785 27.9 13.635 28.2C13.335 28.59 13.185 28.89 13.185 29.1C13.185 29.31 13.38 29.415 13.77 29.415C14.19 29.415 14.895 29.325 15.885 29.145C16.305 29.085 16.59 29.055 16.74 29.055C17.79 29.055 18.36 29.49 18.45 30.36C18.48 30.54 18.495 30.75 18.495 30.99C18.495 31.41 18.345 31.665 18.045 31.755C17.775 31.845 17.145 31.89 16.155 31.89C15.195 32.04 14.205 32.115 13.185 32.115C13.005 32.115 12.795 32.13 12.555 32.16C12.345 32.16 12.12 32.19 11.88 32.25C11.64 32.31 11.46 32.4 11.34 32.52C11.25 32.64 11.145 32.835 11.025 33.105C10.935 33.195 10.725 33.54 10.395 34.14C9.975 35.01 9.705 35.535 9.585 35.715C8.775 38.115 8.175 40.575 7.785 43.095C7.725 43.575 7.695 43.875 7.695 43.995C7.695 44.445 7.845 44.76 8.145 44.94C8.445 45.12 8.955 45.21 9.675 45.21C10.695 45.21 11.58 45.105 12.33 44.895C13.23 44.505 13.905 44.175 14.355 43.905C14.625 43.755 14.865 43.62 15.075 43.5C15.315 43.35 15.48 43.245 15.57 43.185C15.66 43.005 15.765 42.915 15.885 42.915C16.125 42.915 16.335 43.155 16.515 43.635C16.515 44.115 16.41 44.535 16.2 44.895C15.99 45.255 15.465 45.675 14.625 46.155C12.885 47.265 11.145 47.82 9.405 47.82C8.925 47.82 8.475 47.775 8.055 47.685ZM33.5725 46.605C33.1225 46.845 32.6425 46.965 32.1325 46.965C31.3825 46.965 30.7675 46.635 30.2875 45.975C29.8375 45.315 29.6125 44.43 29.6125 43.32C29.6125 42.81 29.7175 41.97 29.9275 40.8C30.1375 39.6 30.3775 38.61 30.6475 37.83C30.6775 37.77 30.7225 37.65 30.7825 37.47C30.8425 37.29 30.8575 37.17 30.8275 37.11C30.8275 37.02 30.7975 36.975 30.7375 36.975C30.5875 36.975 30.3175 37.17 29.9275 37.56C29.0875 38.28 28.1875 39.195 27.2275 40.305C26.2675 41.385 25.4725 42.435 24.8425 43.455C24.2125 44.445 23.8975 45.135 23.8975 45.525C23.8975 45.855 23.7625 46.11 23.4925 46.29C23.2525 46.47 22.9675 46.56 22.6375 46.56C22.4275 46.56 22.2325 46.515 22.0525 46.425C21.6025 46.155 21.2875 45.855 21.1075 45.525C20.9575 45.195 20.8825 44.715 20.8825 44.085C20.8825 43.575 20.8975 43.17 20.9275 42.87C21.0475 40.8 21.2575 38.985 21.5575 37.425C21.8875 35.835 22.5025 33.585 23.4025 30.675C23.4325 30.585 23.7175 29.82 24.2575 28.38C25.1875 25.74 25.7125 24.3 25.8325 24.06C26.0425 23.85 26.3425 23.205 26.7325 22.125C27.1525 21.015 27.3625 20.34 27.3625 20.1C27.3625 19.65 27.5125 19.275 27.8125 18.975L28.2625 18.525C28.5325 18.525 28.8475 18.645 29.2075 18.885C29.5675 19.095 29.7925 19.35 29.8825 19.65C30.0925 20.04 30.1975 20.46 30.1975 20.91C30.1975 21.33 30.0625 21.855 29.7925 22.485C29.5525 23.085 29.1325 23.97 28.5325 25.14C27.6625 26.88 26.8525 28.875 26.1025 31.125C25.7725 32.085 25.3075 33.585 24.7075 35.625C24.1375 37.635 23.8525 38.805 23.8525 39.135C23.8525 39.345 23.9575 39.45 24.1675 39.45C24.4075 39.45 24.6625 39.27 24.9325 38.91C25.0525 38.67 25.6225 38.085 26.6425 37.155C26.7625 37.035 27.4375 36.42 28.6675 35.31C29.8975 34.17 30.7825 33.6 31.3225 33.6C31.6825 33.6 32.0275 33.735 32.3575 34.005C32.7175 34.275 32.9575 34.59 33.0775 34.95C33.1975 35.07 33.2875 35.19 33.3475 35.31C33.4075 35.43 33.4675 35.52 33.5275 35.58C33.5875 35.64 33.6175 35.82 33.6175 36.12C33.6175 37.17 33.2875 38.685 32.6275 40.665C32.1175 42.645 31.8625 43.83 31.8625 44.22C31.8625 44.49 31.9375 44.625 32.0875 44.625C32.1775 44.565 32.3575 44.46 32.6275 44.31C32.8975 44.16 33.2125 43.98 33.5725 43.77C34.5925 43.08 35.4925 42.735 36.2725 42.735C36.6325 42.735 36.8125 42.855 36.8125 43.095C36.8125 43.155 36.7675 43.26 36.6775 43.41C36.5875 43.56 36.5425 43.68 36.5425 43.77V43.995C36.5425 44.145 36.1375 44.595 35.3275 45.345C34.5175 46.095 33.9325 46.515 33.5725 46.605ZM47.752 46.425C47.002 47.085 46.102 47.415 45.052 47.415C44.302 47.415 43.582 47.235 42.892 46.875C42.232 46.515 41.677 46.02 41.227 45.39C40.837 44.91 40.552 44.37 40.372 43.77C40.192 43.17 40.102 42.435 40.102 41.565C40.102 41.265 40.132 40.665 40.192 39.765C40.282 38.655 40.642 37.5 41.272 36.3C41.932 35.1 42.742 34.035 43.702 33.105C44.662 32.145 45.607 31.485 46.537 31.125C47.017 30.825 47.452 30.675 47.842 30.675C48.052 30.675 48.262 30.69 48.472 30.72C48.682 30.75 48.907 30.78 49.147 30.81C49.807 30.9 50.302 31.035 50.632 31.215C50.992 31.365 51.292 31.605 51.532 31.935C52.282 32.685 52.657 33.555 52.657 34.545C52.537 35.265 52.072 36.09 51.262 37.02C50.452 37.95 49.477 38.7 48.337 39.27C47.797 39.45 47.182 39.54 46.492 39.54C45.562 39.54 44.812 39.345 44.242 38.955C43.972 38.865 43.762 38.82 43.612 38.82C43.342 38.82 43.132 39 42.982 39.36C42.862 39.72 42.742 40.38 42.622 41.34C42.592 41.55 42.577 41.85 42.577 42.24C42.577 43.77 43.087 44.61 44.107 44.76C44.797 44.91 45.292 44.985 45.592 44.985C45.952 44.985 46.357 44.865 46.807 44.625L47.662 44.13C47.842 44.04 48.007 43.92 48.157 43.77C48.307 43.62 48.442 43.485 48.562 43.365C48.622 43.305 48.712 43.215 48.832 43.095C48.952 42.945 49.057 42.855 49.147 42.825C49.267 42.765 49.372 42.735 49.462 42.735C49.582 42.735 49.717 42.81 49.867 42.96C50.017 43.08 50.137 43.17 50.227 43.23C50.497 43.23 50.557 43.425 50.407 43.815C50.257 44.175 49.927 44.61 49.417 45.12C48.937 45.6 48.382 46.035 47.752 46.425ZM47.707 36.885C48.217 36.675 48.727 36.3 49.237 35.76C49.777 35.22 50.047 34.77 50.047 34.41C50.047 34.05 49.912 33.75 49.642 33.51C49.372 33.27 48.997 33.15 48.517 33.15C48.157 33.15 47.887 33.18 47.707 33.24C47.287 33.36 46.792 33.69 46.222 34.23C45.652 34.74 45.157 35.265 44.737 35.805C44.317 36.345 44.152 36.66 44.242 36.75C44.392 37.02 44.977 37.155 45.997 37.155C46.687 37.155 47.257 37.065 47.707 36.885Z" fill="black"/>
<path d="M79.4466 19.4942C79.609 19.741 79.6975 20 79.7119 20.2713C79.7117 20.4537 79.6004 20.7002 79.3781 21.0106C79.1509 21.2915 79.0002 21.4837 78.9261 21.5871C78.368 22.2572 77.501 23.4497 76.325 25.1645C75.1491 26.8794 74.2324 28.3233 73.575 29.4963C72.6163 31.0537 71.7367 32.4459 70.9362 33.6729C70.1308 34.8704 69.5428 35.7278 69.1723 36.2452C69.1525 36.3093 68.9079 36.6691 68.4386 37.3244C68.3139 38.4093 68.2189 39.4893 68.1534 40.5644L67.7428 43.597C67.6683 44.0655 67.5786 44.8101 67.4737 45.8309C67.364 46.8221 67.2571 47.5544 67.1529 48.0277C67.1228 48.3976 67.0928 48.7674 67.0628 49.1373C67.0278 49.4775 66.9929 49.8178 66.9579 50.1581C66.8929 50.8682 66.8232 51.4575 66.7486 51.9259C66.7036 52.3895 66.6317 52.6902 66.5329 52.8282C66.439 52.9958 66.2663 53.0547 66.0149 53.0051C65.8916 52.9951 65.4011 52.7873 64.5434 52.3819C64.2281 52.1299 64.0509 51.8856 64.0117 51.6488C63.9774 51.4416 64.0001 51.0274 64.0798 50.406L64.2147 49.0154C64.1268 48.3001 64.1205 47.4346 64.1957 46.4187C64.3005 45.3979 64.4791 44.5473 64.7315 43.867C64.6581 43.4231 64.6935 42.7179 64.8377 41.7514C64.977 40.7553 65.1434 39.8307 65.3368 38.9777L65.7391 36.7219L64.8301 35.9144C64.0174 35.0453 63.3871 34.2678 62.9391 33.5817C62.4863 32.866 62.0977 31.9876 61.7735 30.9466C61.2521 29.8165 60.8837 28.6003 60.6683 27.298C60.5998 26.8836 60.4384 25.7244 60.1843 23.8204C60.0034 22.5428 60.0046 21.6303 60.1877 21.0831C60.3709 20.5359 60.4699 20.2154 60.4848 20.1217C60.633 19.9148 60.7663 19.8015 60.8847 19.7819C61.2103 19.7281 61.5527 20.0516 61.9118 20.7523C62.3006 21.4482 62.5634 22.3018 62.7003 23.313C63.9499 29.7656 65.2945 33.2985 66.7339 33.9119C66.9804 33.9319 67.1333 33.937 67.1925 33.9272C67.5181 33.8734 67.8315 33.6543 68.1329 33.27C68.4589 32.8512 69.0716 31.9592 69.9709 30.5942L70.7714 29.3671C71.1617 28.7856 72.1846 27.1569 73.8402 24.4808C74.794 22.8939 75.56 21.6422 76.1382 20.7255C76.7459 19.804 77.2374 19.1906 77.6126 18.8853C77.6769 18.7226 77.7758 18.5846 77.9091 18.4713C78.0424 18.3581 78.151 18.2793 78.2349 18.235C78.3484 18.1858 78.4199 18.1588 78.4495 18.1539C78.5728 18.1639 78.6763 18.238 78.7599 18.3762C78.8387 18.4848 78.9297 18.6674 79.033 18.924C79.1609 19.1461 79.2988 19.3361 79.4466 19.4942ZM85.7404 45.0446C85.1081 45.8181 84.274 46.2906 83.2381 46.4619C82.4982 46.5843 81.7584 46.5242 81.0189 46.2816C80.309 46.0341 79.6807 45.6363 79.1339 45.0882C78.6708 44.6783 78.3015 44.192 78.0261 43.6295C77.7506 43.0669 77.5418 42.3564 77.3999 41.4981C77.3509 41.2021 77.2826 40.6052 77.1949 39.7075C77.1026 38.5977 77.2693 37.3994 77.695 36.1127C78.1504 34.8211 78.7757 33.6382 79.5711 32.564C80.3616 31.4602 81.1862 30.6549 82.045 30.1479C82.4696 29.7736 82.8743 29.5547 83.2591 29.491C83.4663 29.4568 83.6759 29.4373 83.888 29.4326C84.1001 29.4279 84.3269 29.4208 84.5686 29.4113C85.2345 29.3924 85.7449 29.4448 86.0998 29.5685C86.4795 29.6578 86.8146 29.8456 87.1052 30.132C87.9676 30.7496 88.4795 31.5467 88.641 32.5234C88.6401 33.2534 88.316 34.1432 87.6686 35.1929C87.0212 36.2426 86.1817 37.1417 85.15 37.89C84.6466 38.1557 84.0545 38.3449 83.3738 38.4575C82.4562 38.6093 81.6845 38.5392 81.0585 38.2475C80.7774 38.2028 80.5629 38.1926 80.4149 38.2171C80.1485 38.2612 79.9707 38.473 79.8814 38.8527C79.8218 39.2274 79.8111 39.8982 79.8494 40.8649C79.854 41.077 79.8882 41.3754 79.9518 41.7602C80.2015 43.2696 80.8417 44.0152 81.8725 43.9967C82.5778 44.0321 83.0784 44.0253 83.3743 43.9764C83.7295 43.9176 84.1095 43.7331 84.5143 43.4229L85.2771 42.795C85.44 42.6769 85.5832 42.5316 85.7067 42.3591C85.8302 42.1866 85.9414 42.0314 86.0402 41.8934C86.0896 41.8245 86.1637 41.721 86.2625 41.583C86.3564 41.4154 86.4453 41.3095 86.5292 41.2652C86.6378 41.1864 86.7365 41.1397 86.8253 41.125C86.9437 41.1054 87.0891 41.1574 87.2616 41.2809C87.4292 41.3748 87.5623 41.444 87.6608 41.4886C87.9272 41.4445 88.0182 41.6271 87.9339 42.0363C87.8446 42.416 87.59 42.899 87.1701 43.4854C86.7749 44.0373 86.2983 44.557 85.7404 45.0446ZM84.1392 35.6398C84.6081 35.3494 85.0501 34.8962 85.4652 34.2802C85.9098 33.6593 86.1027 33.1713 86.044 32.8161C85.9853 32.461 85.8031 32.187 85.4976 31.9943C85.192 31.8016 84.8025 31.7444 84.3289 31.8227C83.9737 31.8814 83.7122 31.9551 83.5444 32.0437C83.1497 32.2306 82.7151 32.637 82.2409 33.2627C81.7618 33.8589 81.3591 34.4576 81.0328 35.0589C80.7066 35.6602 80.5952 35.9979 80.6987 36.072C80.8907 36.3139 81.4899 36.3517 82.4962 36.1852C83.177 36.0726 83.7246 35.8908 84.1392 35.6398ZM96.0771 44.612C95.5889 44.6016 95.0491 44.3716 94.4578 43.922C93.8913 43.438 93.4948 42.9714 93.2685 42.5224C93.2587 42.4632 93.2193 42.4089 93.1503 42.3595C93.0764 42.2805 93.0223 42.2286 92.9878 42.2039C92.8547 42.1347 92.7147 41.6561 92.5678 40.7682C92.4504 40.0578 92.3576 39.313 92.2895 38.5336C92.251 37.7494 92.2518 37.1107 92.2919 36.6176L92.7018 34.1324L93.0296 32.2537L93.8025 29.4804L91.9458 29.2858C91.7337 29.2904 91.539 29.2162 91.3616 29.0631C91.2139 28.9051 91.1278 28.7521 91.1033 28.6041C91.0641 28.3673 91.136 28.0666 91.3189 27.7018C91.5266 27.3026 91.7044 27.0907 91.8524 27.0663C91.9461 27.0812 92.1853 27.0568 92.5701 26.9932C93.458 26.8463 94.1166 26.6918 94.5459 26.5295C94.8223 26.3622 94.9903 26.0911 95.05 25.7164C95.1292 25.46 95.2134 25.142 95.3027 24.7624C95.4215 24.3778 95.5305 24.0253 95.6295 23.7049C95.6889 23.5126 95.778 23.2242 95.8969 22.8396C96.0404 22.4206 96.221 21.9498 96.4387 21.4273C96.4832 21.3287 96.5821 21.0995 96.7355 20.7396C96.8839 20.3502 97.0865 20.0126 97.3433 19.7269C97.5163 19.4854 97.7507 19.3402 98.0467 19.2913C98.3427 19.2423 98.7593 19.3711 99.2965 19.6775C99.3703 19.7565 99.4639 19.8627 99.5772 19.996C99.7201 20.1244 99.8013 20.2478 99.8209 20.3662C99.8404 20.4846 99.7637 20.7557 99.5905 21.1797C99.4717 21.5642 99.3479 21.9191 99.2193 22.2445C99.1154 22.5354 99.0213 22.7942 98.9372 23.0209C98.68 23.6716 98.5018 24.1572 98.4028 24.4777C98.1704 24.9114 98.0714 25.2319 98.1057 25.439C98.1399 25.6462 98.3495 25.718 98.7342 25.6544C99.1486 25.5858 99.8295 25.382 100.777 25.0429C101.181 24.9151 101.458 24.839 101.606 24.8145C102.642 24.6432 103.275 24.9794 103.506 25.823C103.565 25.9957 103.614 26.2004 103.653 26.4372C103.721 26.8516 103.615 27.1277 103.334 27.2654C103.082 27.3983 102.468 27.5455 101.491 27.707C100.568 28.0116 99.604 28.2472 98.5977 28.4136C98.4201 28.443 98.2153 28.4921 97.9834 28.5608C97.7763 28.5951 97.5592 28.6614 97.3322 28.7598C97.1052 28.8581 96.9423 28.9763 96.8435 29.1143C96.7743 29.2473 96.7025 29.4569 96.6282 29.7428C96.554 29.8463 96.4032 30.221 96.1755 30.8668C95.9031 31.7936 95.7224 32.3557 95.6334 32.5528C95.2258 35.0528 95.0353 37.5778 95.0618 40.1276C95.0809 40.611 95.1002 40.9119 95.1198 41.0303C95.1933 41.4742 95.3926 41.7605 95.718 41.8892C96.0433 42.0178 96.5612 42.0234 97.2715 41.9059C98.2779 41.7394 99.1339 41.4914 99.8396 41.1619C100.664 40.6302 101.276 40.1945 101.676 39.8547C101.918 39.6626 102.133 39.4903 102.32 39.3376C102.532 39.1505 102.678 39.0199 102.757 38.9461C102.817 38.7538 102.905 38.6479 103.024 38.6283C103.261 38.5891 103.507 38.7916 103.763 39.2358C103.841 39.7094 103.806 40.1409 103.658 40.5303C103.509 40.9198 103.06 41.4198 102.309 42.0305C100.774 43.4095 99.1477 44.241 97.4311 44.5249C96.9575 44.6033 96.5062 44.6323 96.0771 44.612ZM111.487 22.7697C111.413 22.8732 111.331 22.9323 111.243 22.947C111.124 22.9665 110.917 22.9096 110.621 22.776C110.32 22.7954 109.879 22.6099 109.298 22.2196C108.741 21.7947 108.45 21.5083 108.426 21.3603C108.269 20.7781 108.252 20.1271 108.377 19.4072C108.501 18.6873 108.871 18.2611 109.488 18.1287C109.577 18.114 109.7 18.124 109.858 18.1588C110.011 18.1639 110.277 18.2111 110.656 18.3003C110.735 18.4089 110.895 18.6409 111.136 18.9963C111.407 19.3468 111.616 19.6923 111.764 20.0328C111.941 20.3684 112.054 20.6842 112.103 20.9802C112.221 21.6905 112.015 22.287 111.487 22.7697ZM109.4 41.3138C108.956 41.3872 108.51 41.1722 108.062 40.6685C107.643 40.16 107.358 39.6295 107.206 39.0769C107.138 37.9326 107.095 37.1188 107.075 36.6354C107.131 35.5012 107.254 33.9453 107.444 31.9678C107.658 29.9558 107.805 28.8216 107.884 28.5653C107.949 28.4026 108.07 28.3066 108.247 28.2772C108.425 28.2478 108.627 28.2752 108.854 28.3593C109.08 28.4434 109.28 28.5473 109.453 28.6708C109.743 28.9572 109.923 29.3076 109.991 29.7219C110.094 30.3435 110.014 31.6948 109.75 33.7757C109.58 35.3242 109.487 36.4189 109.472 37.0601C109.456 37.7012 109.522 38.3745 109.669 39.08C109.674 39.292 109.673 39.657 109.668 40.1749C109.687 40.6582 109.677 40.964 109.637 41.0922C109.597 41.2204 109.518 41.2942 109.4 41.3138Z" fill="black"/>
<path d="M54.7511 56.3277L111.916 46.8728L112.283 49.0926L55.1182 58.5475L54.7511 56.3277Z" fill="black"/>
</svg>
